<svg xmlns="http://www.w3.org/2000/svg" fill="none" viewBox="0 0 1199 332"><path fill="#FFD1D1" d="M0 0h1197v332H0z"/><path fill="#AA4242" d="M169.456 128.325c3.868-.341 6.94.569 9.216 2.731 2.276 2.048 3.413 5.12 3.413 9.216 0 4.551-1.081 7.851-3.242 9.899-2.048 2.048-5.803 3.356-11.264 3.925l-5.12.512c-5.689.683-9.785 2.503-12.288 5.461-2.39 2.845-3.584 6.77-3.584 11.776v29.184c0 4.665-1.479 8.192-4.438 10.582-2.844 2.275-6.428 3.413-10.752 3.413-4.323 0-7.964-1.138-10.922-3.413-2.845-2.39-4.267-5.917-4.267-10.582v-59.05c0-4.324 1.422-7.68 4.267-10.07 2.958-2.389 6.485-3.584 10.581-3.584 4.21 0 7.566 1.138 10.069 3.414 2.617 2.275 3.926 5.461 3.926 9.557v3.243c1.82-5.007 4.778-8.875 8.874-11.606 4.21-2.73 8.591-4.209 13.142-4.437l2.389-.171zm84.852 58.71c2.617 0 4.722 1.024 6.315 3.072 1.706 2.048 2.56 4.721 2.56 8.021 0 4.551-2.219 8.021-6.656 10.411-3.869 1.934-8.477 3.584-13.824 4.949-5.234 1.252-10.07 1.877-14.507 1.877-9.33 0-17.465-1.763-24.405-5.29-6.941-3.527-12.288-8.591-16.043-15.19-3.755-6.599-5.632-14.336-5.632-23.21 0-8.42 1.764-15.929 5.291-22.528 3.641-6.713 8.647-11.89 15.018-15.531 6.486-3.755 13.767-5.632 21.846-5.632 7.85 0 14.734 1.707 20.65 5.12 5.917 3.413 10.468 8.249 13.654 14.507 3.299 6.257 4.949 13.596 4.949 22.016 0 2.617-.626 4.665-1.877 6.144-1.138 1.365-2.845 2.048-5.12 2.048h-45.056c.796 5.461 2.56 9.386 5.29 11.776 2.731 2.389 6.77 3.584 12.118 3.584 2.844 0 5.461-.285 7.85-.854 2.39-.682 5.063-1.593 8.022-2.73a51.123 51.123 0 014.949-1.707c1.707-.569 3.243-.853 4.608-.853zm-29.184-38.571c-3.982 0-7.168 1.308-9.557 3.925-2.39 2.503-3.812 6.201-4.267 11.094h26.795c-.683-10.013-5.007-15.019-12.971-15.019zm67.44 66.56c-4.324 0-7.964-1.138-10.923-3.413-2.844-2.39-4.266-5.917-4.266-10.582v-94.037c0-4.665 1.422-8.192 4.266-10.581 2.959-2.39 6.599-3.584 10.923-3.584s7.908 1.194 10.752 3.584c2.958 2.389 4.437 5.916 4.437 10.581v94.037c0 4.665-1.479 8.192-4.437 10.582-2.844 2.275-6.428 3.413-10.752 3.413zm101.077-27.989c2.617 0 4.722 1.024 6.315 3.072 1.707 2.048 2.56 4.721 2.56 8.021 0 4.551-2.219 8.021-6.656 10.411-3.868 1.934-8.476 3.584-13.824 4.949-5.234 1.252-10.069 1.877-14.507 1.877-9.329 0-17.465-1.763-24.405-5.29-6.94-3.527-12.288-8.591-16.043-15.19-3.754-6.599-5.632-14.336-5.632-23.21 0-8.42 1.764-15.929 5.291-22.528 3.641-6.713 8.647-11.89 15.019-15.531 6.485-3.755 13.767-5.632 21.845-5.632 7.851 0 14.734 1.707 20.651 5.12 5.916 3.413 10.467 8.249 13.653 14.507 3.3 6.257 4.949 13.596 4.949 22.016 0 2.617-.625 4.665-1.877 6.144-1.138 1.365-2.844 2.048-5.12 2.048h-45.056c.796 5.461 2.56 9.386 5.291 11.776 2.73 2.389 6.769 3.584 12.117 3.584 2.844 0 5.461-.285 7.851-.854 2.389-.682 5.063-1.593 8.021-2.73a51.216 51.216 0 014.949-1.707c1.707-.569 3.243-.853 4.608-.853zm-29.184-38.571c-3.982 0-7.168 1.308-9.557 3.925-2.389 2.503-3.812 6.201-4.267 11.094h26.795c-.683-10.013-5.006-15.019-12.971-15.019zm91.334-20.48c12.97 0 22.528 3.129 28.672 9.387 6.257 6.144 9.386 15.53 9.386 28.16V201.2c0 4.324-1.308 7.737-3.925 10.24-2.503 2.389-6.03 3.584-10.581 3.584-3.983 0-7.282-1.138-9.899-3.413-2.503-2.276-3.868-5.348-4.096-9.216-1.593 4.096-4.267 7.281-8.021 9.557-3.755 2.276-8.249 3.413-13.483 3.413-5.803 0-11.036-1.137-15.701-3.413-4.665-2.389-8.363-5.632-11.094-9.728-2.617-4.21-3.925-8.932-3.925-14.165 0-6.031 1.536-10.809 4.608-14.336 3.186-3.641 8.192-6.258 15.019-7.851 6.826-1.593 16.042-2.389 27.648-2.389h4.608v-2.048c0-3.983-.911-6.827-2.731-8.534-1.82-1.82-4.892-2.73-9.216-2.73-4.665 0-11.492 1.593-20.48 4.778-2.617.911-4.836 1.366-6.656 1.366-2.844 0-5.12-1.024-6.827-3.072-1.706-2.048-2.56-4.722-2.56-8.022 0-2.503.512-4.551 1.536-6.144s2.674-3.015 4.95-4.266c3.982-2.048 8.988-3.698 15.018-4.95 6.031-1.251 11.947-1.877 17.75-1.877zm-4.779 67.072c4.096 0 7.452-1.422 10.069-4.267 2.617-2.958 3.926-6.713 3.926-11.264v-2.048h-2.731c-7.282 0-12.459.683-15.531 2.048-3.072 1.252-4.608 3.414-4.608 6.486 0 2.617.797 4.778 2.39 6.485 1.706 1.707 3.868 2.56 6.485 2.56zm92.972 20.309c-7.623 0-14.052-.569-19.285-1.706-5.234-1.138-9.842-2.959-13.824-5.462-1.593-.796-2.845-2.161-3.755-4.096-.91-1.934-1.365-4.096-1.365-6.485 0-3.072.796-5.575 2.389-7.509 1.707-2.048 3.812-3.072 6.315-3.072 1.706 0 3.299.227 4.778.682 1.479.342 3.3.967 5.462 1.878 3.641 1.251 6.826 2.218 9.557 2.901 2.844.683 6.428 1.024 10.752 1.024 3.072 0 5.461-.398 7.168-1.195 1.82-.91 2.731-2.161 2.731-3.754 0-1.252-.455-2.219-1.366-2.902-.796-.682-2.389-1.308-4.778-1.877-2.39-.683-6.429-1.593-12.118-2.731-10.126-1.934-17.465-4.835-22.016-8.704-4.437-3.982-6.656-9.557-6.656-16.725 0-5.234 1.593-9.956 4.779-14.165 3.3-4.21 7.794-7.51 13.483-9.899 5.689-2.389 12.06-3.584 19.114-3.584 5.12 0 10.07.626 14.848 1.877 4.893 1.252 9.216 3.015 12.971 5.291 3.527 2.048 5.291 5.348 5.291 9.899 0 3.185-.854 5.859-2.56 8.021-1.707 2.162-3.812 3.243-6.315 3.243-2.958 0-6.485-.967-10.581-2.902-2.731-1.251-5.177-2.161-7.339-2.73-2.048-.683-4.494-1.024-7.339-1.024-2.844 0-5.063.455-6.656 1.365-1.593.796-2.389 1.991-2.389 3.584 0 1.82 1.081 3.243 3.243 4.267 2.275 1.024 6.713 2.161 13.312 3.413 11.036 1.934 18.83 4.892 23.381 8.875 4.551 3.868 6.827 9.5 6.827 16.896 0 8.305-3.471 14.961-10.411 19.968-6.827 4.892-16.043 7.338-27.648 7.338zm118.824-28.33c2.617 0 4.722 1.024 6.315 3.072 1.706 2.048 2.56 4.721 2.56 8.021 0 4.551-2.219 8.021-6.656 10.411-3.869 1.934-8.477 3.584-13.824 4.949-5.234 1.252-10.07 1.877-14.507 1.877-9.33 0-17.465-1.763-24.405-5.29-6.941-3.527-12.288-8.591-16.043-15.19-3.755-6.599-5.632-14.336-5.632-23.21 0-8.42 1.764-15.929 5.291-22.528 3.641-6.713 8.647-11.89 15.018-15.531 6.486-3.755 13.767-5.632 21.846-5.632 7.85 0 14.734 1.707 20.65 5.12 5.917 3.413 10.468 8.249 13.654 14.507 3.299 6.257 4.949 13.596 4.949 22.016 0 2.617-.626 4.665-1.877 6.144-1.138 1.365-2.845 2.048-5.12 2.048h-45.056c.796 5.461 2.56 9.386 5.29 11.776 2.731 2.389 6.77 3.584 12.118 3.584 2.844 0 5.461-.285 7.85-.854 2.39-.682 5.063-1.593 8.022-2.73a51.123 51.123 0 014.949-1.707c1.707-.569 3.243-.853 4.608-.853zm-29.184-38.571c-3.982 0-7.168 1.308-9.557 3.925-2.39 2.503-3.812 6.201-4.267 11.094h26.795c-.683-10.013-5.007-15.019-12.971-15.019zm68.059 31.573c-9.444 0-14.166-3.982-14.166-11.946 0-7.851 4.722-11.776 14.166-11.776h32.085c4.779 0 8.306 1.024 10.581 3.072 2.39 2.048 3.584 4.949 3.584 8.704 0 3.754-1.194 6.713-3.584 8.874-2.275 2.048-5.802 3.072-10.581 3.072h-32.085zm112.689 13.312c7.623.455 11.435 3.869 11.435 10.24 0 3.983-1.536 6.941-4.608 8.875-3.072 1.934-7.453 2.731-13.142 2.389l-4.778-.341c-10.24-.796-18.034-3.868-23.382-9.216-5.233-5.461-7.85-13.028-7.85-22.699v-30.208h-4.95c-9.102 0-13.653-3.754-13.653-11.264 0-7.395 4.551-11.093 13.653-11.093h4.95v-11.093c0-4.324 1.365-7.737 4.096-10.24 2.73-2.617 6.428-3.926 11.093-3.926s8.363 1.309 11.093 3.926c2.731 2.503 4.096 5.916 4.096 10.24v11.093h9.387c9.102 0 13.653 3.698 13.653 11.093 0 7.51-4.551 11.264-13.653 11.264h-9.387v32.768c0 2.162.626 3.983 1.878 5.462 1.365 1.479 3.072 2.275 5.12 2.389l4.949.341zm76.676-65.365c9.785 0 17.067 3.015 21.845 9.045 4.779 5.917 7.168 14.962 7.168 27.136v36.864c0 4.324-1.365 7.737-4.096 10.24-2.73 2.503-6.428 3.755-11.093 3.755s-8.363-1.252-11.093-3.755c-2.731-2.503-4.096-5.916-4.096-10.24v-37.546c0-8.192-3.527-12.288-10.582-12.288-4.551 0-8.192 1.479-10.922 4.437-2.617 2.844-3.926 6.713-3.926 11.605v33.792c0 4.324-1.365 7.737-4.096 10.24-2.73 2.503-6.428 3.755-11.093 3.755s-8.363-1.252-11.093-3.755c-2.731-2.503-4.096-5.916-4.096-10.24V106.48c0-3.982 1.422-7.225 4.266-9.728 2.845-2.617 6.599-3.925 11.264-3.925 4.438 0 8.022 1.194 10.752 3.584 2.731 2.389 4.096 5.575 4.096 9.557v34.133c3.072-3.982 6.884-6.997 11.435-9.045s9.671-3.072 15.36-3.072zm85.243 0c12.97 0 22.528 3.129 28.669 9.387 6.26 6.144 9.39 15.53 9.39 28.16V201.2c0 4.324-1.31 7.737-3.93 10.24-2.5 2.389-6.03 3.584-10.577 3.584-3.983 0-7.282-1.138-9.899-3.413-2.503-2.276-3.868-5.348-4.096-9.216-1.593 4.096-4.267 7.281-8.021 9.557-3.755 2.276-8.249 3.413-13.483 3.413-5.803 0-11.036-1.137-15.701-3.413-4.665-2.389-8.363-5.632-11.094-9.728-2.617-4.21-3.925-8.932-3.925-14.165 0-6.031 1.536-10.809 4.608-14.336 3.186-3.641 8.192-6.258 15.019-7.851 6.826-1.593 16.042-2.389 27.648-2.389h4.608v-2.048c0-3.983-.911-6.827-2.731-8.534-1.82-1.82-4.892-2.73-9.216-2.73-4.665 0-11.492 1.593-20.48 4.778-2.617.911-4.836 1.366-6.656 1.366-2.844 0-5.12-1.024-6.827-3.072-1.706-2.048-2.56-4.722-2.56-8.022 0-2.503.512-4.551 1.536-6.144s2.674-3.015 4.95-4.266c3.982-2.048 8.988-3.698 15.018-4.95 6.031-1.251 11.947-1.877 17.75-1.877zm-4.779 67.072c4.096 0 7.452-1.422 10.069-4.267 2.617-2.958 3.926-6.713 3.926-11.264v-2.048h-2.731c-7.282 0-12.459.683-15.531 2.048-3.072 1.252-4.608 3.414-4.608 6.486 0 2.617.797 4.778 2.39 6.485 1.706 1.707 3.868 2.56 6.485 2.56zm109.528-1.707c7.62.455 11.43 3.869 11.43 10.24 0 3.983-1.53 6.941-4.6 8.875-3.08 1.934-7.46 2.731-13.15 2.389l-4.77-.341c-10.24-.796-18.04-3.868-23.39-9.216-5.23-5.461-7.85-13.028-7.85-22.699v-30.208h-4.95c-9.1 0-13.65-3.754-13.65-11.264 0-7.395 4.55-11.093 13.65-11.093h4.95v-11.093c0-4.324 1.37-7.737 4.1-10.24 2.73-2.617 6.43-3.926 11.09-3.926 4.67 0 8.37 1.309 11.1 3.926 2.73 2.503 4.09 5.916 4.09 10.24v11.093h9.39c9.1 0 13.65 3.698 13.65 11.093 0 7.51-4.55 11.264-13.65 11.264h-9.39v32.768c0 2.162.63 3.983 1.88 5.462 1.36 1.479 3.07 2.275 5.12 2.389l4.95.341z"/><path fill="#EE5858" d="M169.456 117.325c3.868-.341 6.94.569 9.216 2.731 2.276 2.048 3.413 5.12 3.413 9.216 0 4.551-1.081 7.851-3.242 9.899-2.048 2.048-5.803 3.356-11.264 3.925l-5.12.512c-5.689.683-9.785 2.503-12.288 5.461-2.39 2.845-3.584 6.77-3.584 11.776v29.184c0 4.665-1.479 8.192-4.438 10.582-2.844 2.275-6.428 3.413-10.752 3.413-4.323 0-7.964-1.138-10.922-3.413-2.845-2.39-4.267-5.917-4.267-10.582v-59.05c0-4.324 1.422-7.68 4.267-10.07 2.958-2.389 6.485-3.584 10.581-3.584 4.21 0 7.566 1.138 10.069 3.414 2.617 2.275 3.926 5.461 3.926 9.557v3.243c1.82-5.007 4.778-8.875 8.874-11.606 4.21-2.73 8.591-4.209 13.142-4.437l2.389-.171zm84.852 58.71c2.617 0 4.722 1.024 6.315 3.072 1.706 2.048 2.56 4.721 2.56 8.021 0 4.551-2.219 8.021-6.656 10.411-3.869 1.934-8.477 3.584-13.824 4.949-5.234 1.252-10.07 1.877-14.507 1.877-9.33 0-17.465-1.763-24.405-5.29-6.941-3.527-12.288-8.591-16.043-15.19-3.755-6.599-5.632-14.336-5.632-23.21 0-8.42 1.764-15.929 5.291-22.528 3.641-6.713 8.647-11.89 15.018-15.531 6.486-3.755 13.767-5.632 21.846-5.632 7.85 0 14.734 1.707 20.65 5.12 5.917 3.413 10.468 8.249 13.654 14.507 3.299 6.257 4.949 13.596 4.949 22.016 0 2.617-.626 4.665-1.877 6.144-1.138 1.365-2.845 2.048-5.12 2.048h-45.056c.796 5.461 2.56 9.386 5.29 11.776 2.731 2.389 6.77 3.584 12.118 3.584 2.844 0 5.461-.285 7.85-.854 2.39-.682 5.063-1.593 8.022-2.73a51.123 51.123 0 014.949-1.707c1.707-.569 3.243-.853 4.608-.853zm-29.184-38.571c-3.982 0-7.168 1.308-9.557 3.925-2.39 2.503-3.812 6.201-4.267 11.094h26.795c-.683-10.013-5.007-15.019-12.971-15.019zm67.44 66.56c-4.324 0-7.964-1.138-10.923-3.413-2.844-2.39-4.266-5.917-4.266-10.582V95.992c0-4.665 1.422-8.192 4.266-10.581 2.959-2.39 6.599-3.584 10.923-3.584s7.908 1.194 10.752 3.584c2.958 2.389 4.437 5.916 4.437 10.581v94.037c0 4.665-1.479 8.192-4.437 10.582-2.844 2.275-6.428 3.413-10.752 3.413zm101.077-27.989c2.617 0 4.722 1.024 6.315 3.072 1.707 2.048 2.56 4.721 2.56 8.021 0 4.551-2.219 8.021-6.656 10.411-3.868 1.934-8.476 3.584-13.824 4.949-5.234 1.252-10.069 1.877-14.507 1.877-9.329 0-17.465-1.763-24.405-5.29-6.94-3.527-12.288-8.591-16.043-15.19-3.754-6.599-5.632-14.336-5.632-23.21 0-8.42 1.764-15.929 5.291-22.528 3.641-6.713 8.647-11.89 15.019-15.531 6.485-3.755 13.767-5.632 21.845-5.632 7.851 0 14.734 1.707 20.651 5.12 5.916 3.413 10.467 8.249 13.653 14.507 3.3 6.257 4.949 13.596 4.949 22.016 0 2.617-.625 4.665-1.877 6.144-1.138 1.365-2.844 2.048-5.12 2.048h-45.056c.796 5.461 2.56 9.386 5.291 11.776 2.73 2.389 6.769 3.584 12.117 3.584 2.844 0 5.461-.285 7.851-.854 2.389-.682 5.063-1.593 8.021-2.73a51.216 51.216 0 014.949-1.707c1.707-.569 3.243-.853 4.608-.853zm-29.184-38.571c-3.982 0-7.168 1.308-9.557 3.925-2.389 2.503-3.812 6.201-4.267 11.094h26.795c-.683-10.013-5.006-15.019-12.971-15.019zm91.334-20.48c12.97 0 22.528 3.129 28.672 9.387 6.257 6.144 9.386 15.53 9.386 28.16V190.2c0 4.324-1.308 7.737-3.925 10.24-2.503 2.389-6.03 3.584-10.581 3.584-3.983 0-7.282-1.138-9.899-3.413-2.503-2.276-3.868-5.348-4.096-9.216-1.593 4.096-4.267 7.281-8.021 9.557-3.755 2.276-8.249 3.413-13.483 3.413-5.803 0-11.036-1.137-15.701-3.413-4.665-2.389-8.363-5.632-11.094-9.728-2.617-4.21-3.925-8.932-3.925-14.165 0-6.031 1.536-10.809 4.608-14.336 3.186-3.641 8.192-6.258 15.019-7.851 6.826-1.593 16.042-2.389 27.648-2.389h4.608v-2.048c0-3.983-.911-6.827-2.731-8.534-1.82-1.82-4.892-2.73-9.216-2.73-4.665 0-11.492 1.593-20.48 4.778-2.617.911-4.836 1.366-6.656 1.366-2.844 0-5.12-1.024-6.827-3.072-1.706-2.048-2.56-4.722-2.56-8.022 0-2.503.512-4.551 1.536-6.144s2.674-3.015 4.95-4.266c3.982-2.048 8.988-3.698 15.018-4.95 6.031-1.251 11.947-1.877 17.75-1.877zm-4.779 67.072c4.096 0 7.452-1.422 10.069-4.267 2.617-2.958 3.926-6.713 3.926-11.264v-2.048h-2.731c-7.282 0-12.459.683-15.531 2.048-3.072 1.252-4.608 3.414-4.608 6.486 0 2.617.797 4.778 2.39 6.485 1.706 1.707 3.868 2.56 6.485 2.56zm92.972 20.309c-7.623 0-14.052-.569-19.285-1.706-5.234-1.138-9.842-2.959-13.824-5.462-1.593-.796-2.845-2.161-3.755-4.096-.91-1.934-1.365-4.096-1.365-6.485 0-3.072.796-5.575 2.389-7.509 1.707-2.048 3.812-3.072 6.315-3.072 1.706 0 3.299.227 4.778.682 1.479.342 3.3.967 5.462 1.878 3.641 1.251 6.826 2.218 9.557 2.901 2.844.683 6.428 1.024 10.752 1.024 3.072 0 5.461-.398 7.168-1.195 1.82-.91 2.731-2.161 2.731-3.754 0-1.252-.455-2.219-1.366-2.902-.796-.682-2.389-1.308-4.778-1.877-2.39-.683-6.429-1.593-12.118-2.731-10.126-1.934-17.465-4.835-22.016-8.704-4.437-3.982-6.656-9.557-6.656-16.725 0-5.234 1.593-9.956 4.779-14.165 3.3-4.21 7.794-7.51 13.483-9.899 5.689-2.389 12.06-3.584 19.114-3.584 5.12 0 10.07.626 14.848 1.877 4.893 1.252 9.216 3.015 12.971 5.291 3.527 2.048 5.291 5.348 5.291 9.899 0 3.185-.854 5.859-2.56 8.021-1.707 2.162-3.812 3.243-6.315 3.243-2.958 0-6.485-.967-10.581-2.902-2.731-1.251-5.177-2.161-7.339-2.73-2.048-.683-4.494-1.024-7.339-1.024-2.844 0-5.063.455-6.656 1.365-1.593.796-2.389 1.991-2.389 3.584 0 1.82 1.081 3.243 3.243 4.267 2.275 1.024 6.713 2.161 13.312 3.413 11.036 1.934 18.83 4.892 23.381 8.875 4.551 3.868 6.827 9.5 6.827 16.896 0 8.305-3.471 14.961-10.411 19.968-6.827 4.892-16.043 7.338-27.648 7.338zm118.824-28.33c2.617 0 4.722 1.024 6.315 3.072 1.706 2.048 2.56 4.721 2.56 8.021 0 4.551-2.219 8.021-6.656 10.411-3.869 1.934-8.477 3.584-13.824 4.949-5.234 1.252-10.07 1.877-14.507 1.877-9.33 0-17.465-1.763-24.405-5.29-6.941-3.527-12.288-8.591-16.043-15.19-3.755-6.599-5.632-14.336-5.632-23.21 0-8.42 1.764-15.929 5.291-22.528 3.641-6.713 8.647-11.89 15.018-15.531 6.486-3.755 13.767-5.632 21.846-5.632 7.85 0 14.734 1.707 20.65 5.12 5.917 3.413 10.468 8.249 13.654 14.507 3.299 6.257 4.949 13.596 4.949 22.016 0 2.617-.626 4.665-1.877 6.144-1.138 1.365-2.845 2.048-5.12 2.048h-45.056c.796 5.461 2.56 9.386 5.29 11.776 2.731 2.389 6.77 3.584 12.118 3.584 2.844 0 5.461-.285 7.85-.854 2.39-.682 5.063-1.593 8.022-2.73a51.123 51.123 0 014.949-1.707c1.707-.569 3.243-.853 4.608-.853zm-29.184-38.571c-3.982 0-7.168 1.308-9.557 3.925-2.39 2.503-3.812 6.201-4.267 11.094h26.795c-.683-10.013-5.007-15.019-12.971-15.019zm68.059 31.573c-9.444 0-14.166-3.982-14.166-11.946 0-7.851 4.722-11.776 14.166-11.776h32.085c4.779 0 8.306 1.024 10.581 3.072 2.39 2.048 3.584 4.949 3.584 8.704 0 3.754-1.194 6.713-3.584 8.874-2.275 2.048-5.802 3.072-10.581 3.072h-32.085zm112.689 13.312c7.623.455 11.435 3.869 11.435 10.24 0 3.983-1.536 6.941-4.608 8.875-3.072 1.934-7.453 2.731-13.142 2.389l-4.778-.341c-10.24-.796-18.034-3.868-23.382-9.216-5.233-5.461-7.85-13.028-7.85-22.699v-30.208h-4.95c-9.102 0-13.653-3.754-13.653-11.264 0-7.395 4.551-11.093 13.653-11.093h4.95v-11.093c0-4.324 1.365-7.737 4.096-10.24 2.73-2.617 6.428-3.926 11.093-3.926s8.363 1.309 11.093 3.926c2.731 2.503 4.096 5.916 4.096 10.24v11.093h9.387c9.102 0 13.653 3.698 13.653 11.093 0 7.51-4.551 11.264-13.653 11.264h-9.387v32.768c0 2.162.626 3.983 1.878 5.462 1.365 1.479 3.072 2.275 5.12 2.389l4.949.341zm76.676-65.365c9.785 0 17.067 3.015 21.845 9.045 4.779 5.917 7.168 14.962 7.168 27.136v36.864c0 4.324-1.365 7.737-4.096 10.24-2.73 2.503-6.428 3.755-11.093 3.755s-8.363-1.252-11.093-3.755c-2.731-2.503-4.096-5.916-4.096-10.24v-37.546c0-8.192-3.527-12.288-10.582-12.288-4.551 0-8.192 1.479-10.922 4.437-2.617 2.844-3.926 6.713-3.926 11.605v33.792c0 4.324-1.365 7.737-4.096 10.24-2.73 2.503-6.428 3.755-11.093 3.755s-8.363-1.252-11.093-3.755c-2.731-2.503-4.096-5.916-4.096-10.24V95.48c0-3.982 1.422-7.225 4.266-9.728 2.845-2.617 6.599-3.925 11.264-3.925 4.438 0 8.022 1.194 10.752 3.584 2.731 2.389 4.096 5.575 4.096 9.557v34.133c3.072-3.982 6.884-6.997 11.435-9.045s9.671-3.072 15.36-3.072zm85.243 0c12.97 0 22.528 3.129 28.669 9.387 6.26 6.144 9.39 15.53 9.39 28.16V190.2c0 4.324-1.31 7.737-3.93 10.24-2.5 2.389-6.03 3.584-10.577 3.584-3.983 0-7.282-1.138-9.899-3.413-2.503-2.276-3.868-5.348-4.096-9.216-1.593 4.096-4.267 7.281-8.021 9.557-3.755 2.276-8.249 3.413-13.483 3.413-5.803 0-11.036-1.137-15.701-3.413-4.665-2.389-8.363-5.632-11.094-9.728-2.617-4.21-3.925-8.932-3.925-14.165 0-6.031 1.536-10.809 4.608-14.336 3.186-3.641 8.192-6.258 15.019-7.851 6.826-1.593 16.042-2.389 27.648-2.389h4.608v-2.048c0-3.983-.911-6.827-2.731-8.534-1.82-1.82-4.892-2.73-9.216-2.73-4.665 0-11.492 1.593-20.48 4.778-2.617.911-4.836 1.366-6.656 1.366-2.844 0-5.12-1.024-6.827-3.072-1.706-2.048-2.56-4.722-2.56-8.022 0-2.503.512-4.551 1.536-6.144s2.674-3.015 4.95-4.266c3.982-2.048 8.988-3.698 15.018-4.95 6.031-1.251 11.947-1.877 17.75-1.877zm-4.779 67.072c4.096 0 7.452-1.422 10.069-4.267 2.617-2.958 3.926-6.713 3.926-11.264v-2.048h-2.731c-7.282 0-12.459.683-15.531 2.048-3.072 1.252-4.608 3.414-4.608 6.486 0 2.617.797 4.778 2.39 6.485 1.706 1.707 3.868 2.56 6.485 2.56zm109.528-1.707c7.62.455 11.43 3.869 11.43 10.24 0 3.983-1.53 6.941-4.6 8.875-3.08 1.934-7.46 2.731-13.15 2.389l-4.77-.341c-10.24-.796-18.04-3.868-23.39-9.216-5.23-5.461-7.85-13.028-7.85-22.699v-30.208h-4.95c-9.1 0-13.65-3.754-13.65-11.264 0-7.395 4.55-11.093 13.65-11.093h4.95v-11.093c0-4.324 1.37-7.737 4.1-10.24 2.73-2.617 6.43-3.926 11.09-3.926 4.67 0 8.37 1.309 11.1 3.926 2.73 2.503 4.09 5.916 4.09 10.24v11.093h9.39c9.1 0 13.65 3.698 13.65 11.093 0 7.51-4.55 11.264-13.65 11.264h-9.39v32.768c0 2.162.63 3.983 1.88 5.462 1.36 1.479 3.07 2.275 5.12 2.389l4.95.341z"/><path fill="#AA4242" d="M421.383 268.152c.096.208.144.416.144.624 0 .368-.152.68-.456.936a1.47 1.47 0 01-1.008.384c-.256 0-.496-.064-.72-.192-.224-.144-.4-.36-.528-.648l-1.44-3.216h-8.448l-1.44 3.216a1.436 1.436 0 01-.528.648 1.529 1.529 0 01-1.752-.192c-.304-.256-.456-.568-.456-.936 0-.208.048-.416.144-.624l6.624-14.232a1.5 1.5 0 01.648-.72c.304-.176.624-.264.96-.264.336 0 .648.088.936.264.304.16.528.4.672.72l6.648 14.232zm-5.064-4.512l-3.168-7.128-3.168 7.128h6.336zm16.54-5.616c.464 0 .832.128 1.104.384.272.256.408.6.408 1.032v9.312c0 .416-.144.752-.432 1.008-.272.256-.632.384-1.08.384-.432 0-.776-.12-1.032-.36s-.384-.568-.384-.984v-.6a3.91 3.91 0 01-1.488 1.488c-.624.336-1.328.504-2.112.504-2.88 0-4.32-1.616-4.32-4.848v-5.904c0-.432.136-.776.408-1.032.272-.256.632-.384 1.08-.384.464 0 .832.128 1.104.384.272.256.408.6.408 1.032v5.928c0 .832.168 1.448.504 1.848.336.4.864.6 1.584.6.832 0 1.496-.272 1.992-.816.512-.56.768-1.296.768-2.208v-5.352c0-.432.136-.776.408-1.032.272-.256.632-.384 1.08-.384zm10.731 9.888c.8.048 1.2.408 1.2 1.08 0 .384-.16.68-.48.888-.304.192-.744.272-1.32.24l-.648-.048c-2.688-.192-4.032-1.632-4.032-4.32v-5.232h-1.2c-.432 0-.768-.096-1.008-.288-.224-.192-.336-.472-.336-.84s.112-.648.336-.84c.24-.192.576-.288 1.008-.288h1.2v-2.208c0-.432.136-.776.408-1.032.272-.256.64-.384 1.104-.384.448 0 .808.128 1.08.384s.408.6.408 1.032v2.208h2.04c.432 0 .76.096.984.288.24.192.36.472.36.84s-.12.648-.36.84c-.224.192-.552.288-.984.288h-2.04v5.448c0 1.184.544 1.816 1.632 1.896l.648.048zm8.115 2.28c-1.2 0-2.256-.248-3.168-.744a5.168 5.168 0 01-2.088-2.136c-.496-.928-.744-2.008-.744-3.24 0-1.232.248-2.304.744-3.216a5.168 5.168 0 012.088-2.136c.912-.496 1.968-.744 3.168-.744 1.2 0 2.248.248 3.144.744a4.983 4.983 0 012.088 2.136c.496.912.744 1.984.744 3.216 0 1.232-.248 2.312-.744 3.24a4.983 4.983 0 01-2.088 2.136c-.896.496-1.944.744-3.144.744zm-.024-2.328c.976 0 1.72-.32 2.232-.96.512-.64.768-1.584.768-2.832 0-1.232-.256-2.168-.768-2.808-.512-.656-1.248-.984-2.208-.984-.96 0-1.704.328-2.232.984-.512.64-.768 1.576-.768 2.808 0 1.248.256 2.192.768 2.832.512.64 1.248.96 2.208.96zm22.421-9.888c1.28 0 2.256.384 2.928 1.152.688.752 1.032 1.976 1.032 3.672v5.904c0 .464-.144.824-.432 1.08-.272.24-.632.36-1.08.36-.432 0-.792-.12-1.08-.36-.272-.256-.408-.616-.408-1.08V262.8c0-.88-.16-1.504-.48-1.872-.304-.384-.776-.576-1.416-.576-.784 0-1.408.272-1.872.816-.464.528-.696 1.256-.696 2.184v5.352c0 .464-.144.824-.432 1.08-.272.24-.624.36-1.056.36-.432 0-.792-.12-1.08-.36-.288-.256-.432-.616-.432-1.08V262.8c0-.88-.16-1.504-.48-1.872-.304-.384-.776-.576-1.416-.576-.784 0-1.408.272-1.872.816-.448.528-.672 1.256-.672 2.184v5.352c0 .464-.144.824-.432 1.08-.288.24-.648.36-1.08.36-.432 0-.792-.12-1.08-.36-.272-.256-.408-.616-.408-1.08v-9.288c0-.448.144-.792.432-1.032.288-.24.648-.36 1.08-.36.416 0 .752.12 1.008.36.272.224.408.552.408.984v.576a3.786 3.786 0 011.464-1.464c.624-.336 1.336-.504 2.136-.504 1.76 0 2.936.736 3.528 2.208a3.966 3.966 0 011.56-1.608c.688-.4 1.464-.6 2.328-.6zm12.097 0c1.632 0 2.84.408 3.624 1.224.8.8 1.2 2.024 1.2 3.672v5.856c0 .432-.128.776-.384 1.032-.256.24-.608.36-1.056.36-.416 0-.76-.128-1.032-.384-.256-.256-.384-.592-.384-1.008v-.528a3.114 3.114 0 01-1.296 1.464c-.576.352-1.248.528-2.016.528-.784 0-1.496-.16-2.136-.48a3.8 3.8 0 01-1.512-1.32 3.335 3.335 0 01-.552-1.872c0-.864.216-1.544.648-2.04.448-.496 1.168-.856 2.16-1.08.992-.224 2.36-.336 4.104-.336h.6v-.552c0-.784-.168-1.352-.504-1.704-.336-.368-.88-.552-1.632-.552-.464 0-.936.072-1.416.216-.48.128-1.048.32-1.704.576-.416.208-.72.312-.912.312a.94.94 0 01-.72-.312c-.176-.208-.264-.48-.264-.816 0-.272.064-.504.192-.696.144-.208.376-.4.696-.576.56-.304 1.224-.544 1.992-.72a10.5 10.5 0 012.304-.264zm-.744 10.056c.8 0 1.448-.264 1.944-.792.512-.544.768-1.24.768-2.088v-.504h-.432c-1.072 0-1.904.048-2.496.144-.592.096-1.016.264-1.272.504s-.384.568-.384.984c0 .512.176.936.528 1.272.368.32.816.48 1.344.48zm14.713-.12c.8.048 1.2.408 1.2 1.08 0 .384-.16.68-.48.888-.304.192-.744.272-1.32.24l-.648-.048c-2.688-.192-4.032-1.632-4.032-4.32v-5.232h-1.2c-.432 0-.768-.096-1.008-.288-.224-.192-.336-.472-.336-.84s.112-.648.336-.84c.24-.192.576-.288 1.008-.288h1.2v-2.208c0-.432.136-.776.408-1.032.272-.256.64-.384 1.104-.384.448 0 .808.128 1.08.384s.408.6.408 1.032v2.208h2.04c.432 0 .76.096.984.288.24.192.36.472.36.84s-.12.648-.36.84c-.224.192-.552.288-.984.288h-2.04v5.448c0 1.184.544 1.816 1.632 1.896l.648.048zm12.051-1.128c.272 0 .488.104.648.312.176.208.264.488.264.84 0 .496-.296.912-.888 1.248a8.41 8.41 0 01-1.848.744 7.943 7.943 0 01-1.968.264c-1.888 0-3.384-.544-4.488-1.632-1.104-1.088-1.656-2.576-1.656-4.464 0-1.2.24-2.264.72-3.192a5.26 5.26 0 012.016-2.16c.88-.512 1.872-.768 2.976-.768 1.056 0 1.976.232 2.76.696a4.72 4.72 0 011.824 1.968c.432.848.648 1.848.648 3 0 .688-.304 1.032-.912 1.032h-7.08c.096 1.104.408 1.92.936 2.448.528.512 1.296.768 2.304.768.512 0 .96-.064 1.344-.192.4-.128.848-.304 1.344-.528.48-.256.832-.384 1.056-.384zm-4.152-6.696c-.816 0-1.472.256-1.968.768-.48.512-.768 1.248-.864 2.208h5.424c-.032-.976-.272-1.712-.72-2.208-.448-.512-1.072-.768-1.872-.768zm17.406-7.128c.448 0 .816.128 1.104.384.288.256.432.592.432 1.008v14.352c0 .432-.136.776-.408 1.032-.272.256-.632.384-1.08.384-.448 0-.808-.128-1.08-.384s-.408-.6-.408-1.032v-.6a3.739 3.739 0 01-1.536 1.536c-.656.368-1.408.552-2.256.552-1.008 0-1.912-.256-2.712-.768-.784-.512-1.4-1.232-1.848-2.16-.432-.944-.648-2.024-.648-3.24 0-1.216.216-2.28.648-3.192.448-.912 1.064-1.616 1.848-2.112s1.688-.744 2.712-.744c.848 0 1.6.176 2.256.528.656.352 1.16.848 1.512 1.488v-5.688c0-.4.128-.72.384-.96.272-.256.632-.384 1.08-.384zm-4.44 14.904c.96 0 1.696-.328 2.208-.984.528-.656.792-1.592.792-2.808 0-1.216-.264-2.144-.792-2.784-.512-.656-1.24-.984-2.184-.984-.96 0-1.704.32-2.232.96-.528.64-.792 1.56-.792 2.76 0 1.216.264 2.16.792 2.832.528.672 1.264 1.008 2.208 1.008zm22.13-9.84c.416-.032.744.056.984.264.24.208.36.52.36.936 0 .432-.104.752-.312.96-.208.208-.584.344-1.128.408l-.72.072c-.944.096-1.64.416-2.088.96-.432.544-.648 1.224-.648 2.04v5.04c0 .464-.144.824-.432 1.08-.288.24-.648.36-1.08.36-.432 0-.792-.12-1.08-.36-.272-.256-.408-.616-.408-1.08v-9.288c0-.448.136-.792.408-1.032.288-.24.64-.36 1.056-.36.416 0 .752.12 1.008.36.256.224.384.552.384.984v.96c.304-.704.752-1.248 1.344-1.632a4.23 4.23 0 012.016-.648l.336-.024zm11.689 8.76c.272 0 .488.104.648.312.176.208.264.488.264.84 0 .496-.296.912-.888 1.248a8.41 8.41 0 01-1.848.744 7.943 7.943 0 01-1.968.264c-1.888 0-3.384-.544-4.488-1.632-1.104-1.088-1.656-2.576-1.656-4.464 0-1.2.24-2.264.72-3.192a5.26 5.26 0 012.016-2.16c.88-.512 1.872-.768 2.976-.768 1.056 0 1.976.232 2.76.696a4.72 4.72 0 011.824 1.968c.432.848.648 1.848.648 3 0 .688-.304 1.032-.912 1.032h-7.08c.096 1.104.408 1.92.936 2.448.528.512 1.296.768 2.304.768.512 0 .96-.064 1.344-.192.4-.128.848-.304 1.344-.528.48-.256.832-.384 1.056-.384zm-4.152-6.696c-.816 0-1.472.256-1.968.768-.48.512-.768 1.248-.864 2.208h5.424c-.032-.976-.272-1.712-.72-2.208-.448-.512-1.072-.768-1.872-.768zm9.102 10.056c-.432 0-.792-.12-1.08-.36-.272-.256-.408-.616-.408-1.08v-14.328c0-.464.136-.816.408-1.056.288-.24.648-.36 1.08-.36.432 0 .792.12 1.08.36.288.24.432.592.432 1.056v14.328c0 .464-.144.824-.432 1.08-.288.24-.648.36-1.08.36zm13.894-3.36c.272 0 .488.104.648.312.176.208.264.488.264.84 0 .496-.296.912-.888 1.248a8.41 8.41 0 01-1.848.744 7.943 7.943 0 01-1.968.264c-1.888 0-3.384-.544-4.488-1.632-1.104-1.088-1.656-2.576-1.656-4.464 0-1.2.24-2.264.72-3.192a5.26 5.26 0 012.016-2.16c.88-.512 1.872-.768 2.976-.768 1.056 0 1.976.232 2.76.696a4.72 4.72 0 011.824 1.968c.432.848.648 1.848.648 3 0 .688-.304 1.032-.912 1.032h-7.08c.096 1.104.408 1.92.936 2.448.528.512 1.296.768 2.304.768.512 0 .96-.064 1.344-.192.4-.128.848-.304 1.344-.528.48-.256.832-.384 1.056-.384zm-4.152-6.696c-.816 0-1.472.256-1.968.768-.48.512-.768 1.248-.864 2.208h5.424c-.032-.976-.272-1.712-.72-2.208-.448-.512-1.072-.768-1.872-.768zm12.702-2.112c1.632 0 2.84.408 3.624 1.224.8.8 1.2 2.024 1.2 3.672v5.856c0 .432-.128.776-.384 1.032-.256.24-.608.36-1.056.36-.416 0-.76-.128-1.032-.384-.256-.256-.384-.592-.384-1.008v-.528a3.114 3.114 0 01-1.296 1.464c-.576.352-1.248.528-2.016.528-.784 0-1.496-.16-2.136-.48a3.8 3.8 0 01-1.512-1.32 3.335 3.335 0 01-.552-1.872c0-.864.216-1.544.648-2.04.448-.496 1.168-.856 2.16-1.08.992-.224 2.36-.336 4.104-.336h.6v-.552c0-.784-.168-1.352-.504-1.704-.336-.368-.88-.552-1.632-.552-.464 0-.936.072-1.416.216-.48.128-1.048.32-1.704.576-.416.208-.72.312-.912.312a.94.94 0 01-.72-.312c-.176-.208-.264-.48-.264-.816 0-.272.064-.504.192-.696.144-.208.376-.4.696-.576.56-.304 1.224-.544 1.992-.72a10.5 10.5 0 012.304-.264zm-.744 10.056c.8 0 1.448-.264 1.944-.792.512-.544.768-1.24.768-2.088v-.504h-.432c-1.072 0-1.904.048-2.496.144-.592.096-1.016.264-1.272.504s-.384.568-.384.984c0 .512.176.936.528 1.272.368.32.816.48 1.344.48zm12.865 2.16c-1.744 0-3.152-.344-4.224-1.032-.512-.304-.768-.736-.768-1.296 0-.32.088-.576.264-.768a.818.818 0 01.648-.312c.272 0 .648.128 1.128.384.512.24.976.424 1.392.552.432.128.976.192 1.632.192.672 0 1.192-.112 1.56-.336.384-.224.576-.536.576-.936 0-.272-.08-.488-.24-.648-.144-.16-.416-.304-.816-.432-.384-.144-.976-.304-1.776-.48-1.424-.288-2.448-.696-3.072-1.224-.608-.528-.912-1.256-.912-2.184a3.1 3.1 0 01.624-1.896c.416-.576.984-1.016 1.704-1.32.736-.32 1.568-.48 2.496-.48.672 0 1.32.088 1.944.264.624.16 1.184.4 1.68.72.512.32.768.744.768 1.272 0 .32-.088.592-.264.816a.818.818 0 01-.648.312c-.176 0-.352-.032-.528-.096-.16-.08-.368-.192-.624-.336a8.664 8.664 0 00-1.2-.528c-.336-.128-.752-.192-1.248-.192-.592 0-1.064.12-1.416.36-.336.24-.504.568-.504.984 0 .4.176.704.528.912.352.208 1.032.416 2.04.624 1.072.224 1.912.48 2.52.768.608.288 1.04.648 1.296 1.08.272.432.408.984.408 1.656 0 1.088-.456 1.96-1.368 2.616-.896.656-2.096.984-3.6.984zm16.688-3.408c.272 0 .488.104.648.312.176.208.264.488.264.84 0 .496-.296.912-.888 1.248a8.41 8.41 0 01-1.848.744 7.943 7.943 0 01-1.968.264c-1.888 0-3.384-.544-4.488-1.632-1.104-1.088-1.656-2.576-1.656-4.464 0-1.2.24-2.264.72-3.192a5.26 5.26 0 012.016-2.16c.88-.512 1.872-.768 2.976-.768 1.056 0 1.976.232 2.76.696a4.72 4.72 0 011.824 1.968c.432.848.648 1.848.648 3 0 .688-.304 1.032-.912 1.032h-7.08c.096 1.104.408 1.92.936 2.448.528.512 1.296.768 2.304.768.512 0 .96-.064 1.344-.192.4-.128.848-.304 1.344-.528.48-.256.832-.384 1.056-.384zm-4.152-6.696c-.816 0-1.472.256-1.968.768-.48.512-.768 1.248-.864 2.208h5.424c-.032-.976-.272-1.712-.72-2.208-.448-.512-1.072-.768-1.872-.768zm18.378 10.104c-1.744 0-3.152-.344-4.224-1.032-.512-.304-.768-.736-.768-1.296 0-.32.088-.576.264-.768a.818.818 0 01.648-.312c.272 0 .648.128 1.128.384.512.24.976.424 1.392.552.432.128.976.192 1.632.192.672 0 1.192-.112 1.56-.336.384-.224.576-.536.576-.936 0-.272-.08-.488-.24-.648-.144-.16-.416-.304-.816-.432-.384-.144-.976-.304-1.776-.48-1.424-.288-2.448-.696-3.072-1.224-.608-.528-.912-1.256-.912-2.184a3.1 3.1 0 01.624-1.896c.416-.576.984-1.016 1.704-1.32.736-.32 1.568-.48 2.496-.48.672 0 1.32.088 1.944.264.624.16 1.184.4 1.68.72.512.32.768.744.768 1.272 0 .32-.088.592-.264.816a.818.818 0 01-.648.312c-.176 0-.352-.032-.528-.096-.16-.08-.368-.192-.624-.336a8.664 8.664 0 00-1.2-.528c-.336-.128-.752-.192-1.248-.192-.592 0-1.064.12-1.416.36-.336.24-.504.568-.504.984 0 .4.176.704.528.912.352.208 1.032.416 2.04.624 1.072.224 1.912.48 2.52.768.608.288 1.04.648 1.296 1.08.272.432.408.984.408 1.656 0 1.088-.456 1.96-1.368 2.616-.896.656-2.096.984-3.6.984zm15.42-11.304c.128-.288.296-.496.504-.624.224-.144.464-.216.72-.216.368 0 .696.128.984.384.304.24.456.544.456.912 0 .176-.048.36-.144.552l-6.552 13.728c-.272.544-.696.816-1.272.816-.368 0-.696-.12-.984-.36a1.069 1.069 0 01-.408-.864c0-.176.048-.376.144-.6l1.632-3.432-4.464-9.288c-.08-.16-.12-.344-.12-.552 0-.368.152-.68.456-.936.32-.256.68-.384 1.08-.384.272 0 .52.072.744.216.224.128.4.336.528.624l3.36 7.416 3.336-7.392zm8.533 11.304c-1.744 0-3.152-.344-4.224-1.032-.512-.304-.768-.736-.768-1.296 0-.32.088-.576.264-.768a.818.818 0 01.648-.312c.272 0 .648.128 1.128.384.512.24.976.424 1.392.552.432.128.976.192 1.632.192.672 0 1.192-.112 1.56-.336.384-.224.576-.536.576-.936 0-.272-.08-.488-.24-.648-.144-.16-.416-.304-.816-.432-.384-.144-.976-.304-1.776-.48-1.424-.288-2.448-.696-3.072-1.224-.608-.528-.912-1.256-.912-2.184a3.1 3.1 0 01.624-1.896c.416-.576.984-1.016 1.704-1.32.736-.32 1.568-.48 2.496-.48.672 0 1.32.088 1.944.264.624.16 1.184.4 1.68.72.512.32.768.744.768 1.272 0 .32-.088.592-.264.816a.818.818 0 01-.648.312c-.176 0-.352-.032-.528-.096-.16-.08-.368-.192-.624-.336a8.664 8.664 0 00-1.2-.528c-.336-.128-.752-.192-1.248-.192-.592 0-1.064.12-1.416.36-.336.24-.504.568-.504.984 0 .4.176.704.528.912.352.208 1.032.416 2.04.624 1.072.224 1.912.48 2.52.768.608.288 1.04.648 1.296 1.08.272.432.408.984.408 1.656 0 1.088-.456 1.96-1.368 2.616-.896.656-2.096.984-3.6.984zm13.379-2.28c.8.048 1.2.408 1.2 1.08 0 .384-.16.68-.48.888-.304.192-.744.272-1.32.24l-.648-.048c-2.688-.192-4.032-1.632-4.032-4.32v-5.232h-1.2c-.432 0-.768-.096-1.008-.288-.224-.192-.336-.472-.336-.84s.112-.648.336-.84c.24-.192.576-.288 1.008-.288h1.2v-2.208c0-.432.136-.776.408-1.032.272-.256.64-.384 1.104-.384.448 0 .808.128 1.08.384s.408.6.408 1.032v2.208h2.04c.432 0 .76.096.984.288.24.192.36.472.36.84s-.12.648-.36.84c-.224.192-.552.288-.984.288h-2.04v5.448c0 1.184.544 1.816 1.632 1.896l.648.048zm12.051-1.128c.272 0 .488.104.648.312.176.208.264.488.264.84 0 .496-.296.912-.888 1.248a8.41 8.41 0 01-1.848.744 7.943 7.943 0 01-1.968.264c-1.888 0-3.384-.544-4.488-1.632-1.104-1.088-1.656-2.576-1.656-4.464 0-1.2.24-2.264.72-3.192a5.26 5.26 0 012.016-2.16c.88-.512 1.872-.768 2.976-.768 1.056 0 1.976.232 2.76.696a4.72 4.72 0 011.824 1.968c.432.848.648 1.848.648 3 0 .688-.304 1.032-.912 1.032h-7.08c.096 1.104.408 1.92.936 2.448.528.512 1.296.768 2.304.768.512 0 .96-.064 1.344-.192.4-.128.848-.304 1.344-.528.48-.256.832-.384 1.056-.384zm-4.152-6.696c-.816 0-1.472.256-1.968.768-.48.512-.768 1.248-.864 2.208h5.424c-.032-.976-.272-1.712-.72-2.208-.448-.512-1.072-.768-1.872-.768zm21.558-2.112c1.28 0 2.256.384 2.928 1.152.688.752 1.032 1.976 1.032 3.672v5.904c0 .464-.144.824-.432 1.08-.272.24-.632.36-1.08.36-.432 0-.792-.12-1.08-.36-.272-.256-.408-.616-.408-1.08V262.8c0-.88-.16-1.504-.48-1.872-.304-.384-.776-.576-1.416-.576-.784 0-1.408.272-1.872.816-.464.528-.696 1.256-.696 2.184v5.352c0 .464-.144.824-.432 1.08-.272.24-.624.36-1.056.36-.432 0-.792-.12-1.08-.36-.288-.256-.432-.616-.432-1.08V262.8c0-.88-.16-1.504-.48-1.872-.304-.384-.776-.576-1.416-.576-.784 0-1.408.272-1.872.816-.448.528-.672 1.256-.672 2.184v5.352c0 .464-.144.824-.432 1.08-.288.24-.648.36-1.08.36-.432 0-.792-.12-1.08-.36-.272-.256-.408-.616-.408-1.08v-9.288c0-.448.144-.792.432-1.032.288-.24.648-.36 1.08-.36.416 0 .752.12 1.008.36.272.224.408.552.408.984v.576a3.786 3.786 0 011.464-1.464c.624-.336 1.336-.504 2.136-.504 1.76 0 2.936.736 3.528 2.208a3.966 3.966 0 011.56-1.608c.688-.4 1.464-.6 2.328-.6zm19.453-2.664c-.736.048-1.272.272-1.608.672-.336.4-.504.976-.504 1.728v.552h2.04c.896 0 1.344.376 1.344 1.128 0 .752-.448 1.128-1.344 1.128h-2.04v8.184c0 .464-.144.816-.432 1.056-.272.24-.624.36-1.056.36-.432 0-.792-.12-1.08-.36-.288-.24-.432-.592-.432-1.056v-8.184h-1.2c-.896 0-1.344-.376-1.344-1.128 0-.752.448-1.128 1.344-1.128h1.2v-.168c0-1.504.392-2.68 1.176-3.528.8-.864 1.92-1.352 3.36-1.464l.624-.048c.64-.048 1.088.024 1.344.216.272.176.408.456.408.84 0 .688-.392 1.072-1.176 1.152l-.624.048zm7.909 14.88c-1.2 0-2.256-.248-3.168-.744a5.168 5.168 0 01-2.088-2.136c-.496-.928-.744-2.008-.744-3.24 0-1.232.248-2.304.744-3.216a5.168 5.168 0 012.088-2.136c.912-.496 1.968-.744 3.168-.744 1.2 0 2.248.248 3.144.744a4.983 4.983 0 012.088 2.136c.496.912.744 1.984.744 3.216 0 1.232-.248 2.312-.744 3.24a4.983 4.983 0 01-2.088 2.136c-.896.496-1.944.744-3.144.744zm-.024-2.328c.976 0 1.72-.32 2.232-.96.512-.64.768-1.584.768-2.832 0-1.232-.256-2.168-.768-2.808-.512-.656-1.248-.984-2.208-.984-.96 0-1.704.328-2.232.984-.512.64-.768 1.576-.768 2.808 0 1.248.256 2.192.768 2.832.512.64 1.248.96 2.208.96zm15.028-9.84c.416-.032.744.056.984.264.24.208.36.52.36.936 0 .432-.104.752-.312.96-.208.208-.584.344-1.128.408l-.72.072c-.944.096-1.64.416-2.088.96-.432.544-.648 1.224-.648 2.04v5.04c0 .464-.144.824-.432 1.08-.288.24-.648.36-1.08.36-.432 0-.792-.12-1.08-.36-.272-.256-.408-.616-.408-1.08v-9.288c0-.448.136-.792.408-1.032.288-.24.64-.36 1.056-.36.416 0 .752.12 1.008.36.256.224.384.552.384.984v.96c.304-.704.752-1.248 1.344-1.632a4.23 4.23 0 012.016-.648l.336-.024zm10.951 12.12c-.464 0-.84-.136-1.128-.408-.272-.288-.408-.672-.408-1.152v-14.04c0-.464.128-.824.384-1.08.272-.256.64-.384 1.104-.384h5.904c1.808 0 3.216.456 4.224 1.368 1.008.896 1.512 2.16 1.512 3.792 0 1.632-.504 2.904-1.512 3.816-1.008.912-2.416 1.368-4.224 1.368h-4.296v5.16c0 .48-.144.864-.432 1.152-.272.272-.648.408-1.128.408zm5.472-9.096c2.128 0 3.192-.928 3.192-2.784 0-1.856-1.064-2.784-3.192-2.784h-3.912v5.568h3.912zm22.06-8.088c.464 0 .832.144 1.104.432.272.272.408.64.408 1.104v14.088c0 .464-.144.84-.432 1.128-.272.288-.632.432-1.08.432-.464 0-.832-.144-1.104-.432-.272-.288-.408-.664-.408-1.128v-5.928h-8.664v5.928c0 .464-.144.84-.432 1.128-.272.288-.64.432-1.104.432-.448 0-.816-.144-1.104-.432-.272-.288-.408-.664-.408-1.128v-14.088c0-.464.136-.832.408-1.104.272-.288.64-.432 1.104-.432.464 0 .832.144 1.104.432.288.272.432.64.432 1.104v5.664h8.664v-5.664c0-.464.136-.832.408-1.104.272-.288.64-.432 1.104-.432zm6.687 17.184c-.464 0-.84-.136-1.128-.408-.272-.288-.408-.672-.408-1.152v-14.04c0-.464.128-.824.384-1.08.272-.256.64-.384 1.104-.384h5.904c1.808 0 3.216.456 4.224 1.368 1.008.896 1.512 2.16 1.512 3.792 0 1.632-.504 2.904-1.512 3.816-1.008.912-2.416 1.368-4.224 1.368h-4.296v5.16c0 .48-.144.864-.432 1.152-.272.272-.648.408-1.128.408zm5.472-9.096c2.128 0 3.192-.928 3.192-2.784 0-1.856-1.064-2.784-3.192-2.784h-3.912v5.568h3.912zm8.722 9.096c-.512 0-.936-.168-1.272-.504a1.806 1.806 0 01-.504-1.296c0-.512.168-.936.504-1.272.336-.352.76-.528 1.272-.528s.936.176 1.272.528c.336.336.504.76.504 1.272s-.168.944-.504 1.296c-.336.336-.76.504-1.272.504z"/><path fill="#EE5858" d="M420.383 268.152c.096.208.144.416.144.624 0 .368-.152.68-.456.936a1.47 1.47 0 01-1.008.384c-.256 0-.496-.064-.72-.192-.224-.144-.4-.36-.528-.648l-1.44-3.216h-8.448l-1.44 3.216a1.436 1.436 0 01-.528.648 1.529 1.529 0 01-1.752-.192c-.304-.256-.456-.568-.456-.936 0-.208.048-.416.144-.624l6.624-14.232a1.5 1.5 0 01.648-.72c.304-.176.624-.264.96-.264.336 0 .648.088.936.264.304.16.528.4.672.72l6.648 14.232zm-5.064-4.512l-3.168-7.128-3.168 7.128h6.336zm16.54-5.616c.464 0 .832.128 1.104.384.272.256.408.6.408 1.032v9.312c0 .416-.144.752-.432 1.008-.272.256-.632.384-1.08.384-.432 0-.776-.12-1.032-.36s-.384-.568-.384-.984v-.6a3.91 3.91 0 01-1.488 1.488c-.624.336-1.328.504-2.112.504-2.88 0-4.32-1.616-4.32-4.848v-5.904c0-.432.136-.776.408-1.032.272-.256.632-.384 1.08-.384.464 0 .832.128 1.104.384.272.256.408.6.408 1.032v5.928c0 .832.168 1.448.504 1.848.336.4.864.6 1.584.6.832 0 1.496-.272 1.992-.816.512-.56.768-1.296.768-2.208v-5.352c0-.432.136-.776.408-1.032.272-.256.632-.384 1.08-.384zm10.731 9.888c.8.048 1.2.408 1.2 1.08 0 .384-.16.68-.48.888-.304.192-.744.272-1.32.24l-.648-.048c-2.688-.192-4.032-1.632-4.032-4.32v-5.232h-1.2c-.432 0-.768-.096-1.008-.288-.224-.192-.336-.472-.336-.84s.112-.648.336-.84c.24-.192.576-.288 1.008-.288h1.2v-2.208c0-.432.136-.776.408-1.032.272-.256.64-.384 1.104-.384.448 0 .808.128 1.08.384s.408.6.408 1.032v2.208h2.04c.432 0 .76.096.984.288.24.192.36.472.36.84s-.12.648-.36.84c-.224.192-.552.288-.984.288h-2.04v5.448c0 1.184.544 1.816 1.632 1.896l.648.048zm8.115 2.28c-1.2 0-2.256-.248-3.168-.744a5.168 5.168 0 01-2.088-2.136c-.496-.928-.744-2.008-.744-3.24 0-1.232.248-2.304.744-3.216a5.168 5.168 0 012.088-2.136c.912-.496 1.968-.744 3.168-.744 1.2 0 2.248.248 3.144.744a4.983 4.983 0 012.088 2.136c.496.912.744 1.984.744 3.216 0 1.232-.248 2.312-.744 3.24a4.983 4.983 0 01-2.088 2.136c-.896.496-1.944.744-3.144.744zm-.024-2.328c.976 0 1.72-.32 2.232-.96.512-.64.768-1.584.768-2.832 0-1.232-.256-2.168-.768-2.808-.512-.656-1.248-.984-2.208-.984-.96 0-1.704.328-2.232.984-.512.64-.768 1.576-.768 2.808 0 1.248.256 2.192.768 2.832.512.64 1.248.96 2.208.96zm22.421-9.888c1.28 0 2.256.384 2.928 1.152.688.752 1.032 1.976 1.032 3.672v5.904c0 .464-.144.824-.432 1.08-.272.24-.632.36-1.08.36-.432 0-.792-.12-1.08-.36-.272-.256-.408-.616-.408-1.08V262.8c0-.88-.16-1.504-.48-1.872-.304-.384-.776-.576-1.416-.576-.784 0-1.408.272-1.872.816-.464.528-.696 1.256-.696 2.184v5.352c0 .464-.144.824-.432 1.08-.272.24-.624.36-1.056.36-.432 0-.792-.12-1.08-.36-.288-.256-.432-.616-.432-1.08V262.8c0-.88-.16-1.504-.48-1.872-.304-.384-.776-.576-1.416-.576-.784 0-1.408.272-1.872.816-.448.528-.672 1.256-.672 2.184v5.352c0 .464-.144.824-.432 1.08-.288.24-.648.36-1.08.36-.432 0-.792-.12-1.08-.36-.272-.256-.408-.616-.408-1.08v-9.288c0-.448.144-.792.432-1.032.288-.24.648-.36 1.08-.36.416 0 .752.12 1.008.36.272.224.408.552.408.984v.576a3.786 3.786 0 011.464-1.464c.624-.336 1.336-.504 2.136-.504 1.76 0 2.936.736 3.528 2.208a3.966 3.966 0 011.56-1.608c.688-.4 1.464-.6 2.328-.6zm12.097 0c1.632 0 2.84.408 3.624 1.224.8.8 1.2 2.024 1.2 3.672v5.856c0 .432-.128.776-.384 1.032-.256.24-.608.36-1.056.36-.416 0-.76-.128-1.032-.384-.256-.256-.384-.592-.384-1.008v-.528a3.114 3.114 0 01-1.296 1.464c-.576.352-1.248.528-2.016.528-.784 0-1.496-.16-2.136-.48a3.8 3.8 0 01-1.512-1.32 3.335 3.335 0 01-.552-1.872c0-.864.216-1.544.648-2.04.448-.496 1.168-.856 2.16-1.08.992-.224 2.36-.336 4.104-.336h.6v-.552c0-.784-.168-1.352-.504-1.704-.336-.368-.88-.552-1.632-.552-.464 0-.936.072-1.416.216-.48.128-1.048.32-1.704.576-.416.208-.72.312-.912.312a.94.94 0 01-.72-.312c-.176-.208-.264-.48-.264-.816 0-.272.064-.504.192-.696.144-.208.376-.4.696-.576.56-.304 1.224-.544 1.992-.72a10.5 10.5 0 012.304-.264zm-.744 10.056c.8 0 1.448-.264 1.944-.792.512-.544.768-1.24.768-2.088v-.504h-.432c-1.072 0-1.904.048-2.496.144-.592.096-1.016.264-1.272.504s-.384.568-.384.984c0 .512.176.936.528 1.272.368.32.816.48 1.344.48zm14.713-.12c.8.048 1.2.408 1.2 1.08 0 .384-.16.68-.48.888-.304.192-.744.272-1.32.24l-.648-.048c-2.688-.192-4.032-1.632-4.032-4.32v-5.232h-1.2c-.432 0-.768-.096-1.008-.288-.224-.192-.336-.472-.336-.84s.112-.648.336-.84c.24-.192.576-.288 1.008-.288h1.2v-2.208c0-.432.136-.776.408-1.032.272-.256.64-.384 1.104-.384.448 0 .808.128 1.08.384s.408.6.408 1.032v2.208h2.04c.432 0 .76.096.984.288.24.192.36.472.36.84s-.12.648-.36.84c-.224.192-.552.288-.984.288h-2.04v5.448c0 1.184.544 1.816 1.632 1.896l.648.048zm12.051-1.128c.272 0 .488.104.648.312.176.208.264.488.264.84 0 .496-.296.912-.888 1.248a8.41 8.41 0 01-1.848.744 7.943 7.943 0 01-1.968.264c-1.888 0-3.384-.544-4.488-1.632-1.104-1.088-1.656-2.576-1.656-4.464 0-1.2.24-2.264.72-3.192a5.26 5.26 0 012.016-2.16c.88-.512 1.872-.768 2.976-.768 1.056 0 1.976.232 2.76.696a4.72 4.72 0 011.824 1.968c.432.848.648 1.848.648 3 0 .688-.304 1.032-.912 1.032h-7.08c.096 1.104.408 1.92.936 2.448.528.512 1.296.768 2.304.768.512 0 .96-.064 1.344-.192.4-.128.848-.304 1.344-.528.48-.256.832-.384 1.056-.384zm-4.152-6.696c-.816 0-1.472.256-1.968.768-.48.512-.768 1.248-.864 2.208h5.424c-.032-.976-.272-1.712-.72-2.208-.448-.512-1.072-.768-1.872-.768zm17.406-7.128c.448 0 .816.128 1.104.384.288.256.432.592.432 1.008v14.352c0 .432-.136.776-.408 1.032-.272.256-.632.384-1.08.384-.448 0-.808-.128-1.08-.384s-.408-.6-.408-1.032v-.6a3.739 3.739 0 01-1.536 1.536c-.656.368-1.408.552-2.256.552-1.008 0-1.912-.256-2.712-.768-.784-.512-1.4-1.232-1.848-2.16-.432-.944-.648-2.024-.648-3.24 0-1.216.216-2.28.648-3.192.448-.912 1.064-1.616 1.848-2.112s1.688-.744 2.712-.744c.848 0 1.6.176 2.256.528.656.352 1.16.848 1.512 1.488v-5.688c0-.4.128-.72.384-.96.272-.256.632-.384 1.08-.384zm-4.44 14.904c.96 0 1.696-.328 2.208-.984.528-.656.792-1.592.792-2.808 0-1.216-.264-2.144-.792-2.784-.512-.656-1.24-.984-2.184-.984-.96 0-1.704.32-2.232.96-.528.64-.792 1.56-.792 2.76 0 1.216.264 2.16.792 2.832.528.672 1.264 1.008 2.208 1.008zm22.13-9.84c.416-.032.744.056.984.264.24.208.36.52.36.936 0 .432-.104.752-.312.96-.208.208-.584.344-1.128.408l-.72.072c-.944.096-1.64.416-2.088.96-.432.544-.648 1.224-.648 2.04v5.04c0 .464-.144.824-.432 1.08-.288.24-.648.36-1.08.36-.432 0-.792-.12-1.08-.36-.272-.256-.408-.616-.408-1.08v-9.288c0-.448.136-.792.408-1.032.288-.24.64-.36 1.056-.36.416 0 .752.12 1.008.36.256.224.384.552.384.984v.96c.304-.704.752-1.248 1.344-1.632a4.23 4.23 0 012.016-.648l.336-.024zm11.689 8.76c.272 0 .488.104.648.312.176.208.264.488.264.84 0 .496-.296.912-.888 1.248a8.41 8.41 0 01-1.848.744 7.943 7.943 0 01-1.968.264c-1.888 0-3.384-.544-4.488-1.632-1.104-1.088-1.656-2.576-1.656-4.464 0-1.2.24-2.264.72-3.192a5.26 5.26 0 012.016-2.16c.88-.512 1.872-.768 2.976-.768 1.056 0 1.976.232 2.76.696a4.72 4.72 0 011.824 1.968c.432.848.648 1.848.648 3 0 .688-.304 1.032-.912 1.032h-7.08c.096 1.104.408 1.92.936 2.448.528.512 1.296.768 2.304.768.512 0 .96-.064 1.344-.192.4-.128.848-.304 1.344-.528.48-.256.832-.384 1.056-.384zm-4.152-6.696c-.816 0-1.472.256-1.968.768-.48.512-.768 1.248-.864 2.208h5.424c-.032-.976-.272-1.712-.72-2.208-.448-.512-1.072-.768-1.872-.768zm9.102 10.056c-.432 0-.792-.12-1.08-.36-.272-.256-.408-.616-.408-1.08v-14.328c0-.464.136-.816.408-1.056.288-.24.648-.36 1.08-.36.432 0 .792.12 1.08.36.288.24.432.592.432 1.056v14.328c0 .464-.144.824-.432 1.08-.288.24-.648.36-1.08.36zm13.894-3.36c.272 0 .488.104.648.312.176.208.264.488.264.84 0 .496-.296.912-.888 1.248a8.41 8.41 0 01-1.848.744 7.943 7.943 0 01-1.968.264c-1.888 0-3.384-.544-4.488-1.632-1.104-1.088-1.656-2.576-1.656-4.464 0-1.2.24-2.264.72-3.192a5.26 5.26 0 012.016-2.16c.88-.512 1.872-.768 2.976-.768 1.056 0 1.976.232 2.76.696a4.72 4.72 0 011.824 1.968c.432.848.648 1.848.648 3 0 .688-.304 1.032-.912 1.032h-7.08c.096 1.104.408 1.92.936 2.448.528.512 1.296.768 2.304.768.512 0 .96-.064 1.344-.192.4-.128.848-.304 1.344-.528.48-.256.832-.384 1.056-.384zm-4.152-6.696c-.816 0-1.472.256-1.968.768-.48.512-.768 1.248-.864 2.208h5.424c-.032-.976-.272-1.712-.72-2.208-.448-.512-1.072-.768-1.872-.768zm12.702-2.112c1.632 0 2.84.408 3.624 1.224.8.8 1.2 2.024 1.2 3.672v5.856c0 .432-.128.776-.384 1.032-.256.24-.608.36-1.056.36-.416 0-.76-.128-1.032-.384-.256-.256-.384-.592-.384-1.008v-.528a3.114 3.114 0 01-1.296 1.464c-.576.352-1.248.528-2.016.528-.784 0-1.496-.16-2.136-.48a3.8 3.8 0 01-1.512-1.32 3.335 3.335 0 01-.552-1.872c0-.864.216-1.544.648-2.04.448-.496 1.168-.856 2.16-1.08.992-.224 2.36-.336 4.104-.336h.6v-.552c0-.784-.168-1.352-.504-1.704-.336-.368-.88-.552-1.632-.552-.464 0-.936.072-1.416.216-.48.128-1.048.32-1.704.576-.416.208-.72.312-.912.312a.94.94 0 01-.72-.312c-.176-.208-.264-.48-.264-.816 0-.272.064-.504.192-.696.144-.208.376-.4.696-.576.56-.304 1.224-.544 1.992-.72a10.5 10.5 0 012.304-.264zm-.744 10.056c.8 0 1.448-.264 1.944-.792.512-.544.768-1.24.768-2.088v-.504h-.432c-1.072 0-1.904.048-2.496.144-.592.096-1.016.264-1.272.504s-.384.568-.384.984c0 .512.176.936.528 1.272.368.32.816.48 1.344.48zm12.865 2.16c-1.744 0-3.152-.344-4.224-1.032-.512-.304-.768-.736-.768-1.296 0-.32.088-.576.264-.768a.818.818 0 01.648-.312c.272 0 .648.128 1.128.384.512.24.976.424 1.392.552.432.128.976.192 1.632.192.672 0 1.192-.112 1.56-.336.384-.224.576-.536.576-.936 0-.272-.08-.488-.24-.648-.144-.16-.416-.304-.816-.432-.384-.144-.976-.304-1.776-.48-1.424-.288-2.448-.696-3.072-1.224-.608-.528-.912-1.256-.912-2.184a3.1 3.1 0 01.624-1.896c.416-.576.984-1.016 1.704-1.32.736-.32 1.568-.48 2.496-.48.672 0 1.32.088 1.944.264.624.16 1.184.4 1.68.72.512.32.768.744.768 1.272 0 .32-.088.592-.264.816a.818.818 0 01-.648.312c-.176 0-.352-.032-.528-.096-.16-.08-.368-.192-.624-.336a8.664 8.664 0 00-1.2-.528c-.336-.128-.752-.192-1.248-.192-.592 0-1.064.12-1.416.36-.336.24-.504.568-.504.984 0 .4.176.704.528.912.352.208 1.032.416 2.04.624 1.072.224 1.912.48 2.52.768.608.288 1.04.648 1.296 1.08.272.432.408.984.408 1.656 0 1.088-.456 1.96-1.368 2.616-.896.656-2.096.984-3.6.984zm16.688-3.408c.272 0 .488.104.648.312.176.208.264.488.264.84 0 .496-.296.912-.888 1.248a8.41 8.41 0 01-1.848.744 7.943 7.943 0 01-1.968.264c-1.888 0-3.384-.544-4.488-1.632-1.104-1.088-1.656-2.576-1.656-4.464 0-1.2.24-2.264.72-3.192a5.26 5.26 0 012.016-2.16c.88-.512 1.872-.768 2.976-.768 1.056 0 1.976.232 2.76.696a4.72 4.72 0 011.824 1.968c.432.848.648 1.848.648 3 0 .688-.304 1.032-.912 1.032h-7.08c.096 1.104.408 1.92.936 2.448.528.512 1.296.768 2.304.768.512 0 .96-.064 1.344-.192.4-.128.848-.304 1.344-.528.48-.256.832-.384 1.056-.384zm-4.152-6.696c-.816 0-1.472.256-1.968.768-.48.512-.768 1.248-.864 2.208h5.424c-.032-.976-.272-1.712-.72-2.208-.448-.512-1.072-.768-1.872-.768zm18.378 10.104c-1.744 0-3.152-.344-4.224-1.032-.512-.304-.768-.736-.768-1.296 0-.32.088-.576.264-.768a.818.818 0 01.648-.312c.272 0 .648.128 1.128.384.512.24.976.424 1.392.552.432.128.976.192 1.632.192.672 0 1.192-.112 1.56-.336.384-.224.576-.536.576-.936 0-.272-.08-.488-.24-.648-.144-.16-.416-.304-.816-.432-.384-.144-.976-.304-1.776-.48-1.424-.288-2.448-.696-3.072-1.224-.608-.528-.912-1.256-.912-2.184a3.1 3.1 0 01.624-1.896c.416-.576.984-1.016 1.704-1.32.736-.32 1.568-.48 2.496-.48.672 0 1.32.088 1.944.264.624.16 1.184.4 1.68.72.512.32.768.744.768 1.272 0 .32-.088.592-.264.816a.818.818 0 01-.648.312c-.176 0-.352-.032-.528-.096-.16-.08-.368-.192-.624-.336a8.664 8.664 0 00-1.2-.528c-.336-.128-.752-.192-1.248-.192-.592 0-1.064.12-1.416.36-.336.24-.504.568-.504.984 0 .4.176.704.528.912.352.208 1.032.416 2.04.624 1.072.224 1.912.48 2.52.768.608.288 1.04.648 1.296 1.08.272.432.408.984.408 1.656 0 1.088-.456 1.96-1.368 2.616-.896.656-2.096.984-3.6.984zm15.42-11.304c.128-.288.296-.496.504-.624.224-.144.464-.216.72-.216.368 0 .696.128.984.384.304.24.456.544.456.912 0 .176-.048.36-.144.552l-6.552 13.728c-.272.544-.696.816-1.272.816-.368 0-.696-.12-.984-.36a1.069 1.069 0 01-.408-.864c0-.176.048-.376.144-.6l1.632-3.432-4.464-9.288c-.08-.16-.12-.344-.12-.552 0-.368.152-.68.456-.936.32-.256.68-.384 1.08-.384.272 0 .52.072.744.216.224.128.4.336.528.624l3.36 7.416 3.336-7.392zm8.533 11.304c-1.744 0-3.152-.344-4.224-1.032-.512-.304-.768-.736-.768-1.296 0-.32.088-.576.264-.768a.818.818 0 01.648-.312c.272 0 .648.128 1.128.384.512.24.976.424 1.392.552.432.128.976.192 1.632.192.672 0 1.192-.112 1.56-.336.384-.224.576-.536.576-.936 0-.272-.08-.488-.24-.648-.144-.16-.416-.304-.816-.432-.384-.144-.976-.304-1.776-.48-1.424-.288-2.448-.696-3.072-1.224-.608-.528-.912-1.256-.912-2.184a3.1 3.1 0 01.624-1.896c.416-.576.984-1.016 1.704-1.32.736-.32 1.568-.48 2.496-.48.672 0 1.32.088 1.944.264.624.16 1.184.4 1.68.72.512.32.768.744.768 1.272 0 .32-.088.592-.264.816a.818.818 0 01-.648.312c-.176 0-.352-.032-.528-.096-.16-.08-.368-.192-.624-.336a8.664 8.664 0 00-1.2-.528c-.336-.128-.752-.192-1.248-.192-.592 0-1.064.12-1.416.36-.336.24-.504.568-.504.984 0 .4.176.704.528.912.352.208 1.032.416 2.04.624 1.072.224 1.912.48 2.52.768.608.288 1.04.648 1.296 1.08.272.432.408.984.408 1.656 0 1.088-.456 1.96-1.368 2.616-.896.656-2.096.984-3.6.984zm13.379-2.28c.8.048 1.2.408 1.2 1.08 0 .384-.16.68-.48.888-.304.192-.744.272-1.32.24l-.648-.048c-2.688-.192-4.032-1.632-4.032-4.32v-5.232h-1.2c-.432 0-.768-.096-1.008-.288-.224-.192-.336-.472-.336-.84s.112-.648.336-.84c.24-.192.576-.288 1.008-.288h1.2v-2.208c0-.432.136-.776.408-1.032.272-.256.64-.384 1.104-.384.448 0 .808.128 1.08.384s.408.6.408 1.032v2.208h2.04c.432 0 .76.096.984.288.24.192.36.472.36.84s-.12.648-.36.84c-.224.192-.552.288-.984.288h-2.04v5.448c0 1.184.544 1.816 1.632 1.896l.648.048zm12.051-1.128c.272 0 .488.104.648.312.176.208.264.488.264.84 0 .496-.296.912-.888 1.248a8.41 8.41 0 01-1.848.744 7.943 7.943 0 01-1.968.264c-1.888 0-3.384-.544-4.488-1.632-1.104-1.088-1.656-2.576-1.656-4.464 0-1.2.24-2.264.72-3.192a5.26 5.26 0 012.016-2.16c.88-.512 1.872-.768 2.976-.768 1.056 0 1.976.232 2.76.696a4.72 4.72 0 011.824 1.968c.432.848.648 1.848.648 3 0 .688-.304 1.032-.912 1.032h-7.08c.096 1.104.408 1.92.936 2.448.528.512 1.296.768 2.304.768.512 0 .96-.064 1.344-.192.4-.128.848-.304 1.344-.528.48-.256.832-.384 1.056-.384zm-4.152-6.696c-.816 0-1.472.256-1.968.768-.48.512-.768 1.248-.864 2.208h5.424c-.032-.976-.272-1.712-.72-2.208-.448-.512-1.072-.768-1.872-.768zm21.558-2.112c1.28 0 2.256.384 2.928 1.152.688.752 1.032 1.976 1.032 3.672v5.904c0 .464-.144.824-.432 1.08-.272.24-.632.36-1.08.36-.432 0-.792-.12-1.08-.36-.272-.256-.408-.616-.408-1.08V262.8c0-.88-.16-1.504-.48-1.872-.304-.384-.776-.576-1.416-.576-.784 0-1.408.272-1.872.816-.464.528-.696 1.256-.696 2.184v5.352c0 .464-.144.824-.432 1.08-.272.24-.624.36-1.056.36-.432 0-.792-.12-1.08-.36-.288-.256-.432-.616-.432-1.08V262.8c0-.88-.16-1.504-.48-1.872-.304-.384-.776-.576-1.416-.576-.784 0-1.408.272-1.872.816-.448.528-.672 1.256-.672 2.184v5.352c0 .464-.144.824-.432 1.08-.288.24-.648.36-1.08.36-.432 0-.792-.12-1.08-.36-.272-.256-.408-.616-.408-1.08v-9.288c0-.448.144-.792.432-1.032.288-.24.648-.36 1.08-.36.416 0 .752.12 1.008.36.272.224.408.552.408.984v.576a3.786 3.786 0 011.464-1.464c.624-.336 1.336-.504 2.136-.504 1.76 0 2.936.736 3.528 2.208a3.966 3.966 0 011.56-1.608c.688-.4 1.464-.6 2.328-.6zm19.453-2.664c-.736.048-1.272.272-1.608.672-.336.4-.504.976-.504 1.728v.552h2.04c.896 0 1.344.376 1.344 1.128 0 .752-.448 1.128-1.344 1.128h-2.04v8.184c0 .464-.144.816-.432 1.056-.272.24-.624.36-1.056.36-.432 0-.792-.12-1.08-.36-.288-.24-.432-.592-.432-1.056v-8.184h-1.2c-.896 0-1.344-.376-1.344-1.128 0-.752.448-1.128 1.344-1.128h1.2v-.168c0-1.504.392-2.68 1.176-3.528.8-.864 1.92-1.352 3.36-1.464l.624-.048c.64-.048 1.088.024 1.344.216.272.176.408.456.408.84 0 .688-.392 1.072-1.176 1.152l-.624.048zm7.909 14.88c-1.2 0-2.256-.248-3.168-.744a5.168 5.168 0 01-2.088-2.136c-.496-.928-.744-2.008-.744-3.24 0-1.232.248-2.304.744-3.216a5.168 5.168 0 012.088-2.136c.912-.496 1.968-.744 3.168-.744 1.2 0 2.248.248 3.144.744a4.983 4.983 0 012.088 2.136c.496.912.744 1.984.744 3.216 0 1.232-.248 2.312-.744 3.24a4.983 4.983 0 01-2.088 2.136c-.896.496-1.944.744-3.144.744zm-.024-2.328c.976 0 1.72-.32 2.232-.96.512-.64.768-1.584.768-2.832 0-1.232-.256-2.168-.768-2.808-.512-.656-1.248-.984-2.208-.984-.96 0-1.704.328-2.232.984-.512.64-.768 1.576-.768 2.808 0 1.248.256 2.192.768 2.832.512.64 1.248.96 2.208.96zm15.028-9.84c.416-.032.744.056.984.264.24.208.36.52.36.936 0 .432-.104.752-.312.96-.208.208-.584.344-1.128.408l-.72.072c-.944.096-1.64.416-2.088.96-.432.544-.648 1.224-.648 2.04v5.04c0 .464-.144.824-.432 1.08-.288.24-.648.36-1.08.36-.432 0-.792-.12-1.08-.36-.272-.256-.408-.616-.408-1.08v-9.288c0-.448.136-.792.408-1.032.288-.24.64-.36 1.056-.36.416 0 .752.12 1.008.36.256.224.384.552.384.984v.96c.304-.704.752-1.248 1.344-1.632a4.23 4.23 0 012.016-.648l.336-.024zm10.951 12.12c-.464 0-.84-.136-1.128-.408-.272-.288-.408-.672-.408-1.152v-14.04c0-.464.128-.824.384-1.08.272-.256.64-.384 1.104-.384h5.904c1.808 0 3.216.456 4.224 1.368 1.008.896 1.512 2.16 1.512 3.792 0 1.632-.504 2.904-1.512 3.816-1.008.912-2.416 1.368-4.224 1.368h-4.296v5.16c0 .48-.144.864-.432 1.152-.272.272-.648.408-1.128.408zm5.472-9.096c2.128 0 3.192-.928 3.192-2.784 0-1.856-1.064-2.784-3.192-2.784h-3.912v5.568h3.912zm22.06-8.088c.464 0 .832.144 1.104.432.272.272.408.64.408 1.104v14.088c0 .464-.144.84-.432 1.128-.272.288-.632.432-1.08.432-.464 0-.832-.144-1.104-.432-.272-.288-.408-.664-.408-1.128v-5.928h-8.664v5.928c0 .464-.144.84-.432 1.128-.272.288-.64.432-1.104.432-.448 0-.816-.144-1.104-.432-.272-.288-.408-.664-.408-1.128v-14.088c0-.464.136-.832.408-1.104.272-.288.64-.432 1.104-.432.464 0 .832.144 1.104.432.288.272.432.64.432 1.104v5.664h8.664v-5.664c0-.464.136-.832.408-1.104.272-.288.64-.432 1.104-.432zm6.687 17.184c-.464 0-.84-.136-1.128-.408-.272-.288-.408-.672-.408-1.152v-14.04c0-.464.128-.824.384-1.08.272-.256.64-.384 1.104-.384h5.904c1.808 0 3.216.456 4.224 1.368 1.008.896 1.512 2.16 1.512 3.792 0 1.632-.504 2.904-1.512 3.816-1.008.912-2.416 1.368-4.224 1.368h-4.296v5.16c0 .48-.144.864-.432 1.152-.272.272-.648.408-1.128.408zm5.472-9.096c2.128 0 3.192-.928 3.192-2.784 0-1.856-1.064-2.784-3.192-2.784h-3.912v5.568h3.912zm8.722 9.096c-.512 0-.936-.168-1.272-.504a1.806 1.806 0 01-.504-1.296c0-.512.168-.936.504-1.272.336-.352.76-.528 1.272-.528s.936.176 1.272.528c.336.336.504.76.504 1.272s-.168.944-.504 1.296c-.336.336-.76.504-1.272.504z"/></svg>
